<?xml version="1.0" encoding="UTF-8"?>
<!DOCTYPE svg PUBLIC "-//W3C//DTD SVG 1.1//EN" "http://www.w3.org/Graphics/SVG/1.1/DTD/svg11.dtd">
<!--Generated by Origin-->
<svg xmlns="http://www.w3.org/2000/svg" xmlns:xlink="http://www.w3.org/1999/xlink" viewBox="0,0 1030,789" width="10.729167in" height="8.218750in">
	<svg xmlns="http://www.w3.org/2000/svg" xmlns:xlink="http://www.w3.org/1999/xlink" viewBox="0,0 6432.98,4923.99" width="1028.99" height="786.999" x="0.00012207" y="6.10351e-05" preserveAspectRatio="none">
		<defs>
			<rect x="1152" y="572" width="4388" height="3537" id="EL_1"/>
			<mask id="ME_1">
				<use xlink:href="#EL_1" fill="white"/>
				<rect x="1152" y="2816" width="4387" height="24" id="ER_1" fill="black"/>
			</mask>
			<mask id="Cp_1">
				<g>
					<use xlink:href="#EL_1" mask="url(#ME_1)" id="EL_2" fill="white"/>
					<rect x="1152" y="1523" width="4387" height="25" id="ER_2" fill="black"/>
				</g>
			</mask>
		</defs>
		<g mask="url(#Cp_1)">
			<rect x="0" y="0" width="6433" height="4924" visibility="hidden"/>
			<polygon points="1298,2840 1688,2840 1688,4108 1298,4108" shape-rendering="crispEdges" fill="#FEE6D1" fill-rule="evenodd" style="stroke: #FEE6D1;stroke-width: 8;stroke-linecap:round;stroke-linejoin:round"/>
			<polyline points="1688,2840 1688,4108" style="stroke: black;stroke-width: 8;stroke-linecap:round;stroke-linejoin:round" fill="none"/>
			<polyline points="1688,4108 1298,4108" style="stroke: black;stroke-width: 8;stroke-linecap:round;stroke-linejoin:round" fill="none"/>
			<polyline points="1298,4108 1298,2840" style="stroke: black;stroke-width: 8;stroke-linecap:round;stroke-linejoin:round" fill="none"/>
			<polygon points="1298,2023 1688,2023 1688,2816 1298,2816" shape-rendering="crispEdges" fill="#FEE6D1" fill-rule="evenodd" style="stroke: #FEE6D1;stroke-width: 8;stroke-linecap:round;stroke-linejoin:round"/>
			<polyline points="1298,2023 1688,2023" style="stroke: black;stroke-width: 8;stroke-linecap:round;stroke-linejoin:round" fill="none"/>
			<polyline points="1688,2023 1688,2816" style="stroke: black;stroke-width: 8;stroke-linecap:round;stroke-linejoin:round" fill="none"/>
			<polyline points="1298,2816 1298,2023" style="stroke: black;stroke-width: 8;stroke-linecap:round;stroke-linejoin:round" fill="none"/>
			<polygon points="2761,3423 3150,3423 3150,4108 2761,4108" shape-rendering="crispEdges" fill="#FEE6D1" fill-rule="evenodd" style="stroke: black;stroke-width: 8;stroke-linecap:round;stroke-linejoin:round"/>
			<polygon points="4223,730 4613,730 4613,1523 4223,1523" shape-rendering="crispEdges" fill="#FEE6D1" fill-rule="evenodd" style="stroke: #FEE6D1;stroke-width: 8;stroke-linecap:round;stroke-linejoin:round"/>
			<polyline points="4223,730 4613,730" style="stroke: black;stroke-width: 8;stroke-linecap:round;stroke-linejoin:round" fill="none"/>
			<polyline points="4613,730 4613,1523" style="stroke: black;stroke-width: 8;stroke-linecap:round;stroke-linejoin:round" fill="none"/>
			<polyline points="4223,1523 4223,730" style="stroke: black;stroke-width: 8;stroke-linecap:round;stroke-linejoin:round" fill="none"/>
			<polygon points="4223,2840 4613,2840 4613,4108 4223,4108" shape-rendering="crispEdges" fill="#FEE6D1" fill-rule="evenodd" style="stroke: #FEE6D1;stroke-width: 8;stroke-linecap:round;stroke-linejoin:round"/>
			<polyline points="4613,2840 4613,4108" style="stroke: black;stroke-width: 8;stroke-linecap:round;stroke-linejoin:round" fill="none"/>
			<polyline points="4613,4108 4223,4108" style="stroke: black;stroke-width: 8;stroke-linecap:round;stroke-linejoin:round" fill="none"/>
			<polyline points="4223,4108 4223,2840" style="stroke: black;stroke-width: 8;stroke-linecap:round;stroke-linejoin:round" fill="none"/>
			<polygon points="4223,1548 4613,1548 4613,2816 4223,2816" shape-rendering="crispEdges" fill="#FEE6D1" fill-rule="evenodd" style="stroke: #FEE6D1;stroke-width: 8;stroke-linecap:round;stroke-linejoin:round"/>
			<polyline points="4613,1548 4613,2816" style="stroke: black;stroke-width: 8;stroke-linecap:round;stroke-linejoin:round" fill="none"/>
			<polyline points="4223,2816 4223,1548" style="stroke: black;stroke-width: 8;stroke-linecap:round;stroke-linejoin:round" fill="none"/>
			<polygon points="1688,2840 2078,2840 2078,4108 1688,4108" shape-rendering="crispEdges" fill="#D4EDD4" fill-rule="evenodd" style="stroke: #D4EDD4;stroke-width: 8;stroke-linecap:round;stroke-linejoin:round"/>
			<polyline points="2078,2840 2078,4108" style="stroke: black;stroke-width: 8;stroke-linecap:round;stroke-linejoin:round" fill="none"/>
			<polyline points="2078,4108 1688,4108" style="stroke: black;stroke-width: 8;stroke-linecap:round;stroke-linejoin:round" fill="none"/>
			<polyline points="1688,4108 1688,2840" style="stroke: black;stroke-width: 8;stroke-linecap:round;stroke-linejoin:round" fill="none"/>
			<polygon points="1688,1757 2078,1757 2078,2816 1688,2816" shape-rendering="crispEdges" fill="#D4EDD4" fill-rule="evenodd" style="stroke: #D4EDD4;stroke-width: 8;stroke-linecap:round;stroke-linejoin:round"/>
			<polyline points="1688,1757 2078,1757" style="stroke: black;stroke-width: 8;stroke-linecap:round;stroke-linejoin:round" fill="none"/>
			<polyline points="2078,1757 2078,2816" style="stroke: black;stroke-width: 8;stroke-linecap:round;stroke-linejoin:round" fill="none"/>
			<polyline points="1688,2816 1688,1757" style="stroke: black;stroke-width: 8;stroke-linecap:round;stroke-linejoin:round" fill="none"/>
			<polygon points="3151,3221 3540,3221 3540,4108 3151,4108" shape-rendering="crispEdges" fill="#D4EDD4" fill-rule="evenodd" style="stroke: black;stroke-width: 8;stroke-linecap:round;stroke-linejoin:round"/>
			<polygon points="4613,635 5003,635 5003,1523 4613,1523" shape-rendering="crispEdges" fill="#D4EDD4" fill-rule="evenodd" style="stroke: #D4EDD4;stroke-width: 8;stroke-linecap:round;stroke-linejoin:round"/>
			<polyline points="4613,635 5003,635" style="stroke: black;stroke-width: 8;stroke-linecap:round;stroke-linejoin:round" fill="none"/>
			<polyline points="5003,635 5003,1523" style="stroke: black;stroke-width: 8;stroke-linecap:round;stroke-linejoin:round" fill="none"/>
			<polyline points="4613,1523 4613,635" style="stroke: black;stroke-width: 8;stroke-linecap:round;stroke-linejoin:round" fill="none"/>
			<polygon points="4613,2840 5003,2840 5003,4108 4613,4108" shape-rendering="crispEdges" fill="#D4EDD4" fill-rule="evenodd" style="stroke: #D4EDD4;stroke-width: 8;stroke-linecap:round;stroke-linejoin:round"/>
			<polyline points="5003,2840 5003,4108" style="stroke: black;stroke-width: 8;stroke-linecap:round;stroke-linejoin:round" fill="none"/>
			<polyline points="5003,4108 4613,4108" style="stroke: black;stroke-width: 8;stroke-linecap:round;stroke-linejoin:round" fill="none"/>
			<polyline points="4613,4108 4613,2840" style="stroke: black;stroke-width: 8;stroke-linecap:round;stroke-linejoin:round" fill="none"/>
			<polygon points="4613,1548 5003,1548 5003,2816 4613,2816" shape-rendering="crispEdges" fill="#D4EDD4" fill-rule="evenodd" style="stroke: #D4EDD4;stroke-width: 8;stroke-linecap:round;stroke-linejoin:round"/>
			<polyline points="5003,1548 5003,2816" style="stroke: black;stroke-width: 8;stroke-linecap:round;stroke-linejoin:round" fill="none"/>
			<polyline points="4613,2816 4613,1548" style="stroke: black;stroke-width: 8;stroke-linecap:round;stroke-linejoin:round" fill="none"/>
			<polygon points="2078,2840 2468,2840 2468,4108 2078,4108" shape-rendering="crispEdges" fill="#DBD3E6" fill-rule="evenodd" style="stroke: #DBD3E6;stroke-width: 8;stroke-linecap:round;stroke-linejoin:round"/>
			<polyline points="2468,2840 2468,4108" style="stroke: black;stroke-width: 8;stroke-linecap:round;stroke-linejoin:round" fill="none"/>
			<polyline points="2468,4108 2078,4108" style="stroke: black;stroke-width: 8;stroke-linecap:round;stroke-linejoin:round" fill="none"/>
			<polyline points="2078,4108 2078,2840" style="stroke: black;stroke-width: 8;stroke-linecap:round;stroke-linejoin:round" fill="none"/>
			<polygon points="2078,2182 2468,2182 2468,2816 2078,2816" shape-rendering="crispEdges" fill="#DBD3E6" fill-rule="evenodd" style="stroke: #DBD3E6;stroke-width: 8;stroke-linecap:round;stroke-linejoin:round"/>
			<polyline points="2078,2182 2468,2182" style="stroke: black;stroke-width: 8;stroke-linecap:round;stroke-linejoin:round" fill="none"/>
			<polyline points="2468,2182 2468,2816" style="stroke: black;stroke-width: 8;stroke-linecap:round;stroke-linejoin:round" fill="none"/>
			<polyline points="2078,2816 2078,2182" style="stroke: black;stroke-width: 8;stroke-linecap:round;stroke-linejoin:round" fill="none"/>
			<polygon points="3541,3734 3930,3734 3930,4108 3541,4108" shape-rendering="crispEdges" fill="#DBD3E6" fill-rule="evenodd" style="stroke: black;stroke-width: 8;stroke-linecap:round;stroke-linejoin:round"/>
			<polygon points="5003,959 5393,959 5393,1523 5003,1523" shape-rendering="crispEdges" fill="#DBD3E6" fill-rule="evenodd" style="stroke: #DBD3E6;stroke-width: 8;stroke-linecap:round;stroke-linejoin:round"/>
			<polyline points="5003,959 5393,959" style="stroke: black;stroke-width: 8;stroke-linecap:round;stroke-linejoin:round" fill="none"/>
			<polyline points="5393,959 5393,1523" style="stroke: black;stroke-width: 8;stroke-linecap:round;stroke-linejoin:round" fill="none"/>
			<polyline points="5003,1523 5003,959" style="stroke: black;stroke-width: 8;stroke-linecap:round;stroke-linejoin:round" fill="none"/>
			<polygon points="5003,2840 5393,2840 5393,4108 5003,4108" shape-rendering="crispEdges" fill="#DBD3E6" fill-rule="evenodd" style="stroke: #DBD3E6;stroke-width: 8;stroke-linecap:round;stroke-linejoin:round"/>
			<polyline points="5393,2840 5393,4108" style="stroke: black;stroke-width: 8;stroke-linecap:round;stroke-linejoin:round" fill="none"/>
			<polyline points="5393,4108 5003,4108" style="stroke: black;stroke-width: 8;stroke-linecap:round;stroke-linejoin:round" fill="none"/>
			<polyline points="5003,4108 5003,2840" style="stroke: black;stroke-width: 8;stroke-linecap:round;stroke-linejoin:round" fill="none"/>
			<polygon points="5003,1548 5393,1548 5393,2816 5003,2816" shape-rendering="crispEdges" fill="#DBD3E6" fill-rule="evenodd" style="stroke: #DBD3E6;stroke-width: 8;stroke-linecap:round;stroke-linejoin:round"/>
			<polyline points="5393,1548 5393,2816" style="stroke: black;stroke-width: 8;stroke-linecap:round;stroke-linejoin:round" fill="none"/>
			<polyline points="5003,2816 5003,1548" style="stroke: black;stroke-width: 8;stroke-linecap:round;stroke-linejoin:round" fill="none"/>
		</g>
		<text x="1287" dominant-baseline="auto" y="1986" fill="black" font-family="Times New Roman,'MS PGothic',SimSun" font-size="150" font-weight="400">
			<tspan x="1287" style="font-kerning:none">0.3775</tspan>
		</text>
		<text x="2749" dominant-baseline="auto" y="3386" fill="black" font-family="Times New Roman,'MS PGothic',SimSun" font-size="150" font-weight="400">
			<tspan x="2749" style="font-kerning:none">0.2008</tspan>
		</text>
		<text x="4212" dominant-baseline="auto" y="693" fill="black" font-family="Times New Roman,'MS PGothic',SimSun" font-size="150" font-weight="400">
			<tspan x="4212" style="font-kerning:none">0.4175</tspan>
		</text>
		<text x="1677" dominant-baseline="auto" y="1720" fill="black" font-family="Times New Roman,'MS PGothic',SimSun" font-size="150" font-weight="400">
			<tspan x="1677" style="font-kerning:none">0.3817</tspan>
		</text>
		<text x="3139" dominant-baseline="auto" y="3184" fill="black" font-family="Times New Roman,'MS PGothic',SimSun" font-size="150" font-weight="400">
			<tspan x="3139" style="font-kerning:none">0.2040</tspan>
		</text>
		<text x="4602" dominant-baseline="auto" y="598" fill="black" font-family="Times New Roman,'MS PGothic',SimSun" font-size="150" font-weight="400">
			<tspan x="4602" style="font-kerning:none">0.4190</tspan>
		</text>
		<text x="2067" dominant-baseline="auto" y="2145" fill="black" font-family="Times New Roman,'MS PGothic',SimSun" font-size="150" font-weight="400">
			<tspan x="2067" style="font-kerning:none">0.3750</tspan>
		</text>
		<text x="3529" dominant-baseline="auto" y="3697" fill="black" font-family="Times New Roman,'MS PGothic',SimSun" font-size="150" font-weight="400">
			<tspan x="3529" style="font-kerning:none">0.1959</tspan>
		</text>
		<text x="4992" dominant-baseline="auto" y="922" fill="black" font-family="Times New Roman,'MS PGothic',SimSun" font-size="150" font-weight="400">
			<tspan x="4992" style="font-kerning:none">0.4139</tspan>
		</text>
		<polyline points="1152,4108 5539,4108" style="stroke: black;stroke-width: 13;stroke-linecap:square;stroke-linejoin:round" fill="none"/>
		<polyline points="1883,4108 1883,4177" style="stroke: black;stroke-width: 13;stroke-linecap:butt;stroke-linejoin:round" fill="none"/>
		<polyline points="3346,4108 3346,4177" style="stroke: black;stroke-width: 13;stroke-linecap:butt;stroke-linejoin:round" fill="none"/>
		<polyline points="4808,4108 4808,4177" style="stroke: black;stroke-width: 13;stroke-linecap:butt;stroke-linejoin:round" fill="none"/>
		<polyline points="1152,4108 1152,2840" style="stroke: black;stroke-width: 13;stroke-linecap:square;stroke-linejoin:round" fill="none"/>
		<polyline points="1152,2816 1152,1548" style="stroke: black;stroke-width: 13;stroke-linecap:square;stroke-linejoin:round" fill="none"/>
		<polyline points="1152,1523 1152,572" style="stroke: black;stroke-width: 13;stroke-linecap:square;stroke-linejoin:round" fill="none"/>
		<polyline points="1101,2870 1203,2810" style="stroke: black;stroke-width: 13;stroke-linecap:butt;stroke-linejoin:round" fill="none"/>
		<polyline points="1101,2846 1203,2786" style="stroke: black;stroke-width: 13;stroke-linecap:butt;stroke-linejoin:round" fill="none"/>
		<polyline points="1101,1578 1203,1518" style="stroke: black;stroke-width: 13;stroke-linecap:butt;stroke-linejoin:round" fill="none"/>
		<polyline points="1101,1553 1203,1493" style="stroke: black;stroke-width: 13;stroke-linecap:butt;stroke-linejoin:round" fill="none"/>
		<polyline points="1152,4108 1083,4108" style="stroke: black;stroke-width: 13;stroke-linecap:butt;stroke-linejoin:round" fill="none"/>
		<polyline points="1152,3474 1083,3474" style="stroke: black;stroke-width: 13;stroke-linecap:butt;stroke-linejoin:round" fill="none"/>
		<polyline points="1152,2499 1083,2499" style="stroke: black;stroke-width: 13;stroke-linecap:butt;stroke-linejoin:round" fill="none"/>
		<polyline points="1152,1865 1083,1865" style="stroke: black;stroke-width: 13;stroke-linecap:butt;stroke-linejoin:round" fill="none"/>
		<polyline points="1152,1206 1083,1206" style="stroke: black;stroke-width: 13;stroke-linecap:butt;stroke-linejoin:round" fill="none"/>
		<polyline points="1152,572 1083,572" style="stroke: black;stroke-width: 13;stroke-linecap:butt;stroke-linejoin:round" fill="none"/>
		<text x="1658" dominant-baseline="auto" y="4368" fill="black" font-family="Times New Roman,'MS PGothic',SimSun" font-size="184" font-weight="400">
			<tspan x="1658" style="font-kerning:none">20NG</tspan>
		</text>
		<text x="3106" dominant-baseline="auto" y="4368" fill="black" font-family="Times New Roman,'MS PGothic',SimSun" font-size="184" font-weight="400">
			<tspan x="3106" style="font-kerning:none">IMDB</tspan>
		</text>
		<text x="4609" dominant-baseline="auto" y="4368" fill="black" font-family="Times New Roman,'MS PGothic',SimSun" font-size="184" font-weight="400">
			<tspan x="4609" style="font-kerning:none">NIPS</tspan>
		</text>
		<text x="713" dominant-baseline="auto" y="4164" fill="black" font-family="Times New Roman,'MS PGothic',SimSun" font-size="184" font-weight="400">
			<tspan x="713" style="font-kerning:none">0.19</tspan>
		</text>
		<text x="713" dominant-baseline="auto" y="3530" fill="black" font-family="Times New Roman,'MS PGothic',SimSun" font-size="184" font-weight="400">
			<tspan x="713" style="font-kerning:none">0.20</tspan>
		</text>
		<text x="713" dominant-baseline="auto" y="2555" fill="black" font-family="Times New Roman,'MS PGothic',SimSun" font-size="184" font-weight="400">
			<tspan x="713" style="font-kerning:none">0.37</tspan>
		</text>
		<text x="713" dominant-baseline="auto" y="1921" fill="black" font-family="Times New Roman,'MS PGothic',SimSun" font-size="184" font-weight="400">
			<tspan x="713" style="font-kerning:none">0.38</tspan>
		</text>
		<text x="713" dominant-baseline="auto" y="1262" fill="black" font-family="Times New Roman,'MS PGothic',SimSun" font-size="184" font-weight="400">
			<tspan x="713" style="font-kerning:none">0.41</tspan>
		</text>
		<text x="713" dominant-baseline="auto" y="628" fill="black" font-family="Times New Roman,'MS PGothic',SimSun" font-size="184" font-weight="400">
			<tspan x="713" style="font-kerning:none">0.42</tspan>
		</text>
		<text x="651" dominant-baseline="auto" y="2631" fill="black" font-family="Times New Roman,'MS PGothic',SimSun" font-size="233" font-weight="400" transform="rotate(270 651 2631)">
			<tspan x="651" style="font-kerning:none">NPMI</tspan>
		</text>
		<text x="2951" dominant-baseline="auto" y="4648" fill="black" font-family="Times New Roman,'MS PGothic',SimSun" font-size="233" font-weight="400">
			<tspan x="2951" style="font-kerning:none">Datasets</tspan>
		</text>
		<polygon points="1297,454 1663,454 1663,634 1297,634" shape-rendering="crispEdges" fill="#FEE6D1" fill-rule="evenodd" style="stroke: black;stroke-width: 8;stroke-linecap:round;stroke-linejoin:round"/>
		<text x="1666" dominant-baseline="auto" y="599" fill="black" font-family="Times New Roman,'MS PGothic',SimSun" font-size="166" font-weight="400">
			<tspan x="1666" style="white-space:pre;font-kerning:none" xml:space="preserve"> </tspan>
		</text>
		<text x="1708" dominant-baseline="auto" y="599" fill="black" font-family="Times New Roman,'MS PGothic',SimSun" font-size="166" font-weight="400">
			<tspan x="1708" style="white-space:pre;font-kerning:none" xml:space="preserve">#layer = 1</tspan>
		</text>
		<polygon points="1297,659 1663,659 1663,839 1297,839" shape-rendering="crispEdges" fill="#D4EDD4" fill-rule="evenodd" style="stroke: black;stroke-width: 8;stroke-linecap:round;stroke-linejoin:round"/>
		<text x="1666" dominant-baseline="auto" y="804" fill="black" font-family="Times New Roman,'MS PGothic',SimSun" font-size="166" font-weight="400">
			<tspan x="1666" style="white-space:pre;font-kerning:none" xml:space="preserve"> </tspan>
		</text>
		<text x="1708" dominant-baseline="auto" y="804" fill="black" font-family="Times New Roman,'MS PGothic',SimSun" font-size="166" font-weight="400">
			<tspan x="1708" style="white-space:pre;font-kerning:none" xml:space="preserve">#layer = 2</tspan>
		</text>
		<polygon points="1297,864 1663,864 1663,1044 1297,1044" shape-rendering="crispEdges" fill="#DBD3E6" fill-rule="evenodd" style="stroke: black;stroke-width: 8;stroke-linecap:round;stroke-linejoin:round"/>
		<text x="1666" dominant-baseline="auto" y="1009" fill="black" font-family="Times New Roman,'MS PGothic',SimSun" font-size="166" font-weight="400">
			<tspan x="1666" style="white-space:pre;font-kerning:none" xml:space="preserve"> </tspan>
		</text>
		<text x="1708" dominant-baseline="auto" y="1009" fill="black" font-family="Times New Roman,'MS PGothic',SimSun" font-size="166" font-weight="400">
			<tspan x="1708" style="white-space:pre;font-kerning:none" xml:space="preserve">#layer = 3</tspan>
		</text>
	</svg>
</svg>

